<mxfile host="app.diagrams.net" modified="2021-03-08T14:57:05.389Z" agent="5.0 (Windows NT 10.0; Win64; x64) AppleWebKit/537.36 (KHTML, like Gecko) Chrome/89.0.4389.72 Safari/537.36 Edg/89.0.774.45" etag="brfLHzTtSbI4rkekXd7y" version="14.4.4" type="github">
  <diagram id="-rrhu2GIzAV6wygYMy7e" name="第 1 页">
    <mxGraphModel dx="1872" dy="818" grid="1" gridSize="10" guides="1" tooltips="1" connect="1" arrows="1" fold="1" page="1" pageScale="1" pageWidth="100" pageHeight="100" math="0" shadow="0">
      <root>
        <mxCell id="0" />
        <mxCell id="1" parent="0" />
      </root>
    </mxGraphModel>
  </diagram>
</mxfile>
